<svg xmlns="http://www.w3.org/2000/svg" viewBox="0 0 200 200" role="img" aria-labelledby="title desc">
  <title id="title">TaskPoints logo</title>
  <desc id="desc">Teal T with orange P monogram on a dark vignette background.</desc>
  <defs>
    <radialGradient id="bg" cx="50%" cy="50%" r="70%">
      <stop offset="0%" stop-color="#111822" stop-opacity="0.9"/>
      <stop offset="80%" stop-color="#0b0d10" stop-opacity="0.95"/>
      <stop offset="100%" stop-color="#0b0d10" stop-opacity="0.6"/>
    </radialGradient>
    <filter id="shadow" x="-20%" y="-20%" width="140%" height="140%">
      <feDropShadow dx="0" dy="2" stdDeviation="6" flood-color="#000" flood-opacity="0.4"/>
    </filter>
  </defs>
  <rect width="200" height="200" fill="url(#bg)" rx="20"/>
  <g filter="url(#shadow)">
    <path d="M40 52h120c4 0 6 3 6 7v18c0 4-2 7-6 7h-42v66c0 4-3 8-7 8H109c-4 0-7-4-7-8V84H40c-4 0-6-3-6-7V59c0-4 2-7 6-7Z" fill="#0e5c69"/>
    <path d="M106 84h40c20 0 34 11 34 34 0 23-14 36-34 36h-18v14c0 4-3 8-7 8h-15c-4 0-7-4-7-8V92c0-4 3-8 7-8Zm26 44c7 0 12-4 12-10 0-6-5-10-12-10h-11v20Z" fill="#ffa027" stroke="#0e5c69" stroke-width="6" stroke-linejoin="round"/>
  </g>
</svg>
